<svg width="432" height="101" viewBox="0 0 432 101" fill="none" xmlns="http://www.w3.org/2000/svg">
<circle cx="50.5" cy="50.5" r="50.5" fill="#00EF8B"/>
<circle cx="50.5" cy="50.5" r="50.5" stroke="#00EF8B"/>
<path d="M73.9976 57.9899C73.9957 57.9875 73.994 57.9858 73.992 57.9835C74.0799 57.6825 74.1706 57.3834 74.2475 57.075C77.5461 43.8564 69.4956 28.2285 55.8723 20C61.8423 28.1402 64.482 37.9999 62.1367 46.6224C61.9276 47.3915 61.6761 48.1296 61.3982 48.847C61.0965 48.6476 60.7165 48.4214 60.2061 48.1383C60.2061 48.1383 46.6546 39.7225 31.967 24.8368C31.5816 24.4461 39.799 36.6503 49.1249 46.5605C44.7311 44.0803 32.4863 35.1193 24.7346 27.9831C25.687 29.5807 26.8197 31.119 28.0649 32.5999C34.5383 40.8572 42.9804 51.0455 53.0944 58.8689C45.9882 63.2429 35.947 63.5831 25.9494 58.8734C23.4766 57.7078 21.1519 56.3014 19 54.7035C23.232 61.512 29.7498 67.3863 37.6826 70.8157C47.1428 74.9049 56.5502 74.6276 63.5569 70.8827L63.5514 70.8908C63.5834 70.8705 63.6241 70.8483 63.6573 70.8277C63.945 70.6721 64.2305 70.5137 64.5098 70.3464C67.8763 68.5888 74.5256 66.8057 78.0947 73.7904C78.9687 75.4998 80.8261 66.4409 73.9976 57.9899Z" fill="white"/>
<path d="M140.42 39.86V45.32H135.62V71H127.34V45.32H122.84V39.86H127.34V36.02C127.34 30.7 130.02 28.04 135.38 28.04C136.66 28.04 138.26 28.1 140.18 28.22V34.4C139.38 34.28 138.6 34.22 137.84 34.22C136.36 34.22 135.62 35.06 135.62 36.74V39.86H140.42ZM153.749 28.04V71H145.469V28.04H153.749ZM175.795 38.54C181.035 38.54 185.055 40.22 187.855 43.58C190.295 46.46 191.515 50.3 191.515 55.1C191.515 60.62 189.935 64.86 186.775 67.82C184.015 70.38 180.355 71.66 175.795 71.66C170.555 71.66 166.535 70 163.735 66.68C161.295 63.76 160.075 59.9 160.075 55.1C160.075 49.62 161.655 45.4 164.815 42.44C167.575 39.84 171.235 38.54 175.795 38.54ZM175.795 45.2C173.555 45.2 171.755 46.12 170.395 47.96C169.035 49.76 168.355 52.14 168.355 55.1C168.355 58.3 169.115 60.82 170.635 62.66C171.995 64.22 173.715 65 175.795 65C178.035 65 179.835 64.1 181.195 62.3C182.595 60.46 183.295 58.06 183.295 55.1C183.295 51.94 182.515 49.44 180.955 47.6C179.595 46 177.875 45.2 175.795 45.2ZM230.015 71H221.495L216.695 48.56L211.655 71H203.195L194.195 39.2H202.775L207.815 61.46L212.615 39.2H220.895L225.635 61.46L230.495 39.2H239.015L230.015 71ZM271.49 54.98L282.17 71H272.27L266.87 61.1L261.47 71H251.57L262.19 54.98L251.81 39.2H261.71L266.87 48.8L272.03 39.2H281.93L271.49 54.98ZM324.563 48.56H316.163C316.123 47.28 315.663 46.38 314.783 45.86C313.903 45.3 312.383 45.02 310.223 45.02C307.063 45.02 305.483 45.94 305.483 47.78C305.483 48.86 306.443 49.66 308.363 50.18L318.803 53.12C322.963 54.28 325.043 56.92 325.043 61.04C325.043 64.28 323.783 66.9 321.263 68.9C318.903 70.74 315.503 71.66 311.063 71.66C305.623 71.66 301.723 70.86 299.363 69.26C297.043 67.74 295.803 65.28 295.643 61.88H303.863C304.103 63.2 304.663 64.08 305.543 64.52C306.463 64.96 308.143 65.18 310.583 65.18C314.703 65.18 316.763 64.2 316.763 62.24C316.763 61.08 315.843 60.22 314.003 59.66L304.163 56.66C301.643 55.9 299.923 55.02 299.003 54.02C297.803 52.78 297.203 51.1 297.203 48.98C297.203 45.5 298.523 42.82 301.163 40.94C303.483 39.34 306.523 38.54 310.283 38.54C314.843 38.54 318.443 39.56 321.083 41.6C323.363 43.4 324.523 45.72 324.563 48.56ZM363.257 71H354.737L349.937 48.56L344.897 71H336.437L327.437 39.2H336.017L341.057 61.46L345.857 39.2H354.137L358.877 61.46L363.737 39.2H372.257L363.257 71ZM385.077 39.2V71H376.797V39.2H385.077ZM380.877 28.28C381.957 28.28 382.857 28.66 383.577 29.42C384.337 30.18 384.717 31.1 384.717 32.18C384.717 33.26 384.337 34.18 383.577 34.94C382.857 35.66 381.957 36.02 380.877 36.02C379.797 36.02 378.877 35.66 378.117 34.94C377.357 34.18 376.977 33.26 376.977 32.18C376.977 31.1 377.357 30.18 378.117 29.42C378.877 28.66 379.797 28.28 380.877 28.28ZM407.783 39.86V45.32H402.983V71H394.703V45.32H390.203V39.86H394.703V36.02C394.703 30.7 397.383 28.04 402.743 28.04C404.023 28.04 405.623 28.1 407.543 28.22V34.4C406.743 34.28 405.963 34.22 405.203 34.22C403.723 34.22 402.983 35.06 402.983 36.74V39.86H407.783ZM427.772 39.2V44.66H422.192V62.36C422.192 63.52 422.392 64.32 422.792 64.76C423.232 65.2 424.012 65.42 425.132 65.42C426.052 65.42 427.232 65.06 428.672 64.34C428.792 64.26 428.892 64.2 428.972 64.16L429.932 69.8C427.412 71.04 424.772 71.66 422.012 71.66C416.612 71.66 413.912 69.18 413.912 64.22V44.66H409.832V39.2H413.912V33.92L422.192 29.18V39.2H427.772Z" fill="black"/>
</svg>
